<svg width="283" height="246" viewBox="0 0 283 246" fill="none" xmlns="http://www.w3.org/2000/svg">
<path d="M282.482 72.2605C281.765 33.2 250.149 1.18791 211.088 0.0327818C184.585 -0.748 161.118 12.4825 147.535 32.8684C146.038 35.1145 143.642 36.2268 141.257 36.2268C138.872 36.2268 136.454 35.1038 134.968 32.8684C121.384 12.4825 97.9178 -0.748 71.414 0.0327818C32.3536 1.19861 0.74792 33.2 0.00992051 72.2605C-0.385818 94.7855 11.112 114.936 24.8666 128.808L134.625 243.573C137.716 246.813 144.775 246.813 147.877 243.573L257.636 128.808C272.62 113.524 282.899 94.7854 282.482 72.2711V72.2605Z" fill="white"/>
</svg>
