<svg width="255" height="246" viewBox="0 0 255 246" fill="none" xmlns="http://www.w3.org/2000/svg">
<path d="M252.204 118.037L132.466 2.11774C129.556 -0.705913 124.925 -0.705913 122.027 2.11774L2.28889 118.037C0.823581 119.449 0 121.396 0 123.428V238.492C0 242.642 3.36915 246 7.50837 246H53.0718C57.2217 246 60.5802 242.631 60.5802 238.492V185.88C60.5802 181.73 63.9493 178.371 68.0886 178.371H94.2929C98.4428 178.371 101.791 181.741 101.791 185.88V238.492C101.791 242.642 105.16 246 109.299 246H246.984C251.134 246 254.492 242.631 254.492 238.492V123.428C254.492 121.396 253.669 119.449 252.204 118.037Z" fill="white"/>
</svg>
