<svg width="1033" height="160" viewBox="0 0 1033 160" fill="none" xmlns="http://www.w3.org/2000/svg">
<path d="M0 79.7396C0 69.7915 0 64.8175 0.511846 60.6378C4.36599 29.1653 29.1653 4.36599 60.6378 0.511846C64.8175 0 69.7911 0 79.7381 0C89.6852 0 94.6588 0 98.8384 0.511846C130.311 4.36599 155.11 29.1653 158.964 60.6378C159.476 64.8175 159.476 69.7915 159.476 79.7396C159.476 89.6876 159.476 94.6617 158.964 98.8413C155.11 130.314 130.311 155.113 98.8384 158.967C94.6588 159.479 89.6852 159.479 79.7381 159.479C69.7911 159.479 64.8175 159.479 60.6378 158.967C29.1653 155.113 4.36599 130.314 0.511846 98.8413C0 94.6617 0 89.6876 0 79.7396Z" fill="white"/>
<path d="M118.178 79.5819C118.902 80.3059 118.902 81.4798 118.178 82.2038L67.9698 132.412C67.2458 133.136 66.0719 133.136 65.3479 132.412L50.9278 117.992C50.2038 117.268 50.2038 116.094 50.9278 115.37L101.136 65.1618C101.86 64.4378 103.034 64.4378 103.758 65.1618L118.178 79.5819Z" fill="#007BFC"/>
<path d="M95.0315 56.4481C95.7555 57.1721 95.7555 58.346 95.0315 59.07L80.6026 73.4989C79.8786 74.2229 78.7047 74.2229 77.9807 73.4989L50.9024 46.4206C50.1784 45.6966 50.1784 44.5227 50.9024 43.7987L65.3313 29.3698C66.0553 28.6458 67.2292 28.6458 67.9532 29.3698L95.0315 56.4481Z" fill="#007BFC"/>
<path d="M440.723 28.0071H477.576L507.279 106.763L536.759 28.0071H572.316V133.013H548.684V52.7417L517.902 133.013H493.626L462.844 53.1729V133.013H440.731V28.0071H440.723Z" fill="white"/>
<path d="M726.672 28.0071H807.964V133.013H782.818V50.1372H749.651C749.433 64.8891 749.003 84.6324 748.572 95.6996C747.701 123.252 739.685 133.013 716.053 133.013H704.781V110.883H711.07C721.693 110.883 725.158 106.109 725.815 91.1395C726.459 75.0853 726.672 43.1946 726.672 28.0071Z" fill="white"/>
<path d="M936.551 28.007H1032.15V50.137H996.818V133.013H971.885V50.137H936.551V28.007Z" fill="white"/>
<path d="M375.651 25.8467H366.649C345.022 25.8467 328.639 39.006 324.881 58.5956L347.86 62.2847C351.004 52.9553 358.223 46.5891 367.357 46.1664C370.309 46.0255 369.601 46.0596 372.554 46.1664C386.129 46.6574 392.26 53.1688 392.26 69.2572C366.534 69.2572 348.948 68.0403 336.016 76.5712C325.452 83.5437 320.926 91.2719 320.926 103.488C320.926 121.169 334.672 135.182 356.857 135.182C360.339 135.182 358.922 135.182 359.912 135.182C375.587 135.182 388.241 129.072 393.391 121.702V133.017L416.54 133.026V69.7311C416.544 45.3124 403.476 25.8467 375.651 25.8467ZM361.516 114.696C351.674 114.418 345.974 108.714 345.974 101.498C345.974 95.5246 348.662 92.6041 352.216 90.529C355.94 88.3557 360.787 87.6042 368.313 87.3353C375.544 87.0791 381.428 86.7588 392.648 86.7588C392.648 104.679 381.385 113.684 367.395 114.64C365.185 114.79 363.829 114.76 361.516 114.696Z" fill="white"/>
<path d="M930.73 87.6085V77.7753C930.73 43.8948 909.462 26.3676 881.991 26.3676H876.615C847.062 26.3676 828.204 46.5293 827.231 74.9957C827.095 79.1629 827.095 80.8964 827.231 86.5923C827.927 114.918 847.765 133.982 874.264 134.678C879.119 134.819 878.496 134.806 883.074 134.678C906.151 134.033 923.622 120.703 928.772 103.283L906.45 99.3759C900.993 110.294 890.587 114.482 882.264 114.896C879.627 115.037 879.256 115.003 876.619 114.896C863.577 114.358 851.9 104.128 851.9 89.2737V87.6085H930.73ZM876.197 46.1535C878.833 46.0126 879.768 46.0126 882.404 46.1535C893.365 46.7086 904.901 53.8305 906.011 67.9933H852.036C853.286 55.3548 863.432 46.8495 876.197 46.1535Z" fill="white"/>
<path d="M697.914 71.2426C697.356 45.8333 676.877 26.3718 649.811 26.3718H640.002C612.936 26.3718 592.457 45.8291 591.899 71.3792C591.758 78.4627 591.758 82.5916 591.899 89.6708C592.457 115.221 612.936 134.678 640.002 134.678H649.811C676.877 134.678 697.356 115.221 697.914 89.6708C698.055 82.5916 698.055 78.3261 697.914 71.2426ZM673.191 88.3771C672.896 103.214 662.111 113.287 647.601 114.021C644.815 114.166 644.99 114.166 642.204 114.021C627.549 113.287 616.908 103.214 616.614 88.3771C616.469 82.2073 616.469 78.7061 616.614 72.5363C616.908 57.8441 627.544 47.7718 642.204 47.0374C644.99 46.8922 644.815 46.8922 647.601 47.0374C662.111 47.7718 672.896 57.8484 673.191 72.6857C673.34 78.8513 673.34 82.2073 673.191 88.3771Z" fill="white"/>
<path d="M281.946 95.9687C279.028 105.704 271.203 112.382 260.691 113.838C257.662 114.256 254.658 114.158 252.214 113.816C239.137 111.989 229.934 102.168 229.661 88.3771C229.516 82.2073 229.516 78.7061 229.661 72.5363C229.939 58.6468 239.598 48.472 252.913 47.0545C253.681 46.9733 256.582 46.7086 259.385 47.0118C270.593 48.2201 279.015 54.9492 282.044 65.1667L306.406 60.4529C301.175 40.526 283.124 26.3718 260.038 26.3718H253.041C225.975 26.3718 205.497 45.8291 204.938 71.3792C204.797 78.4627 204.797 82.5916 204.938 89.6708C205.501 115.221 225.975 134.678 253.041 134.678H260.038C283.567 134.678 301.798 119.969 306.61 99.3375L281.946 95.9687Z" fill="white"/>
</svg>
