<svg width="181" height="246" viewBox="0 0 181 246" fill="none" xmlns="http://www.w3.org/2000/svg">
<path d="M179.698 25.5178C182.308 14.4799 176.254 3.22802 165.024 0.564793C153.89 -2.07704 142.017 4.80029 139.365 15.9452L122.252 88.0449C121.92 89.4567 119.92 89.4888 119.524 88.0876L100.208 18.0309C97.1491 6.92872 85.6297 0.53271 74.7201 3.55959C63.6821 6.60786 57.2114 18.0202 60.2596 29.0474L75.1694 83.1462C75.4795 84.2479 74.1961 85.0928 73.319 84.3762C66.2599 78.6968 55.2647 77.4882 47.6387 82.8575C42.5689 86.4191 39.5527 92.3231 39.2426 98.7192C39.1784 100.045 37.4991 100.57 36.6435 99.5534C29.7982 91.4461 18.8993 89.831 9.66895 95.2645C3.69006 98.7833 0.149755 105.329 0.149755 112.271C0.149755 131.384 0 149.973 0 168.84C0 211.837 35.1781 246.619 78.3245 245.977C120.904 245.346 155.184 209.762 154.285 167.182C154.125 159.043 150.435 148.839 152.157 141.523L179.698 25.4965V25.5178Z" fill="white"/>
</svg>
