<svg width="246" height="246" viewBox="0 0 246 246" fill="none" xmlns="http://www.w3.org/2000/svg">
<path d="M185.88 62.8797C184.382 62.8797 183.12 61.6176 183.12 60.1203C183.12 26.9209 156.21 0 123 0C89.79 0 62.8797 26.9103 62.8797 60.1203C62.8797 61.6176 61.6604 62.8797 60.163 62.8797C26.9637 62.8797 0 89.79 0 123C0 156.21 26.9209 183.12 60.1203 183.12C61.6176 183.12 62.869 184.34 62.869 185.848C62.869 219.058 89.79 246 122.989 246C156.189 246 183.11 219.09 183.11 185.88C183.11 184.382 184.329 183.131 185.837 183.131C219.036 183.131 246 156.21 246 123.011C246 89.8114 219.079 62.8904 185.88 62.8904V62.8797ZM123.524 155.044C105.545 155.044 90.9665 140.466 90.9665 122.487C90.9665 104.507 105.545 89.929 123.524 89.929C141.503 89.929 156.082 104.507 156.082 122.487C156.082 140.466 141.503 155.044 123.524 155.044Z" fill="white"/>
</svg>
