<svg width="69" height="105" viewBox="0 0 69 105" fill="none" xmlns="http://www.w3.org/2000/svg">
<path d="M67.8186 50.7552C68.5426 51.4792 68.5426 52.653 67.8186 53.377L17.6104 103.585C16.8864 104.309 15.7126 104.309 14.9886 103.585L0.568389 89.1651C-0.155609 88.4411 -0.155609 87.2672 0.568389 86.5432L50.7766 36.335C51.5006 35.611 52.6745 35.611 53.3985 36.335L67.8186 50.7552ZM44.6721 27.6214C45.3961 28.3454 45.3961 29.5192 44.6721 30.2432L30.2432 44.6721C29.5192 45.3961 28.3454 45.3961 27.6214 44.6721L0.542998 17.5938C-0.181 16.8698 -0.180999 15.6959 0.542998 14.972L14.972 0.542998C15.696 -0.180999 16.8698 -0.180999 17.5938 0.542998L44.6721 27.6214Z" fill="#007BFC"/>
</svg>
