<svg width="107" height="109" viewBox="0 0 107 109" fill="none" xmlns="http://www.w3.org/2000/svg">
<path d="M106.121 44.8707C105.563 19.4615 85.0839 0 58.0178 0H48.2093C21.1432 0 0.664493 19.4572 0.105594 45.0074C-0.0351978 52.0909 -0.0351978 56.2197 0.105594 63.299C0.664493 88.8491 21.1432 108.306 48.2093 108.306H58.0178C85.0839 108.306 105.563 88.8491 106.121 63.299C106.262 56.2197 106.262 51.9543 106.121 44.8707ZM81.3976 62.0052C81.1033 76.8426 70.3178 86.9149 55.8078 87.6493C53.0218 87.7945 53.1967 87.7945 50.4107 87.6493C35.7556 86.9149 25.1152 76.8426 24.8209 62.0052C24.6758 55.8355 24.6758 52.3343 24.8209 46.1645C25.1152 31.4723 35.7514 21.4 50.4107 20.6656C53.1967 20.5204 53.0218 20.5204 55.8078 20.6656C70.3178 21.4 81.1033 31.4766 81.3976 46.3139C81.547 52.4794 81.547 55.8355 81.3976 62.0052Z" fill="white"/>
</svg>
