<svg width="102" height="109" viewBox="0 0 102 109" fill="none" xmlns="http://www.w3.org/2000/svg">
<path d="M77.1142 69.5968C74.196 79.3319 66.3714 86.0097 55.859 87.4657C52.8298 87.8842 49.8263 87.7859 47.3816 87.4444C34.3051 85.6169 25.1025 75.7965 24.8294 62.0052C24.6844 55.8355 24.6844 52.3343 24.8294 46.1645C25.1067 32.275 34.7659 22.1002 48.0813 20.6826C48.8493 20.6015 51.7504 20.3368 54.5534 20.6399C65.7613 21.8483 74.1832 28.5774 77.2123 38.7949L101.574 34.0811C96.3429 14.1542 78.2917 0 55.2062 0H48.2093C21.1432 0 0.664493 19.4572 0.105594 45.0074C-0.0351978 52.0909 -0.0351978 56.2197 0.105594 63.299C0.668759 88.8491 21.1432 108.306 48.2093 108.306H55.2062C78.7354 108.306 96.9658 93.5971 101.778 72.9657L77.1142 69.5968Z" fill="white"/>
</svg>
