<svg width="96" height="110" viewBox="0 0 96 110" fill="#000000" xmlns="http://www.w3.org/2000/svg">
<path d="M54.7251 0H45.723C24.0966 0 7.71361 13.1593 3.95491 32.7489L26.9338 36.438C30.0781 27.1086 37.2969 20.7424 46.4313 20.3197C49.3836 20.1788 48.6754 20.213 51.6278 20.3197C65.2035 20.8107 71.3343 27.3221 71.3343 43.4105C45.6078 43.4105 28.0217 42.1936 15.0903 50.7245C4.52665 57.697 0 65.4253 0 77.641C0 95.322 13.7463 109.335 35.9316 109.335C39.413 109.335 37.9966 109.335 38.9864 109.335C54.6612 109.335 67.3153 103.225 72.4649 95.8557V107.171L95.6144 107.179V43.8844C95.6186 19.4658 82.5506 0 54.7251 0ZM40.5906 88.8491C30.748 88.5715 25.048 82.8672 25.048 75.6513C25.048 69.6779 27.7359 66.7574 31.2898 64.6823C35.0144 62.509 39.861 61.7576 47.3869 61.4886C54.6185 61.2324 60.5019 60.9122 71.7225 60.9122C71.7225 78.8323 60.4592 87.8371 46.4696 88.7936C44.2596 88.943 42.903 88.9131 40.5906 88.8491Z" fill="000000"/>
</svg>
