<svg width="104" height="109" viewBox="0 0 104 109" fill="none" xmlns="http://www.w3.org/2000/svg">
<path d="M103.601 61.2409V51.4077C103.601 17.5273 82.3331 0 54.8617 0H49.486C19.9326 0 1.07513 20.1617 0.102394 48.6281C-0.0341312 52.7954 -0.0341312 54.5289 0.102394 60.2247C0.797818 88.5502 20.6366 107.615 47.1352 108.311C51.9904 108.451 51.3676 108.439 55.9454 108.311C79.0224 107.666 96.4933 94.3357 101.643 76.9152L79.3211 73.0083C73.8643 83.9261 63.4585 88.1147 55.1347 88.5289C52.4981 88.6698 52.1269 88.6356 49.4903 88.5289C36.4479 87.9909 24.7708 77.7606 24.7708 62.9061V61.2409H103.601ZM49.0679 19.786C51.7046 19.6451 52.6389 19.6451 55.2756 19.786C66.236 20.3411 77.7724 27.463 78.8816 41.6257H24.9073C26.1574 28.9873 36.3028 20.482 49.0679 19.786Z" fill="white"/>
</svg>
