<svg width="29" height="29" viewBox="0 0 29 29" fill="none" xmlns="http://www.w3.org/2000/svg">
<path d="M28.4172 13.6388L19.474 10.0391C19.2395 9.94458 19.0542 9.75923 18.9596 9.52472L15.3599 0.581563C15.0485 -0.193854 13.9503 -0.193854 13.6388 0.581563L10.0391 9.52598C9.94458 9.7605 9.75923 9.94584 9.52472 10.0404L0.581563 13.6401C-0.193854 13.9515 -0.193854 15.0497 0.581563 15.3612L9.52598 18.9596C9.76049 19.0542 9.94584 19.2395 10.0404 19.474L13.6401 28.4172C13.9515 29.1926 15.0497 29.1926 15.3612 28.4172L18.9609 19.474C19.0554 19.2395 19.2408 19.0542 19.4753 18.9596L28.4184 15.3599C29.1939 15.0485 29.1939 13.9503 28.4184 13.6388H28.4172Z" fill="white"/>
</svg>
